<mxfile host="app.diagrams.net" modified="2023-11-20T13:02:06.449Z" agent="Mozilla/5.0 (Windows NT 10.0; Win64; x64) AppleWebKit/537.36 (KHTML, like Gecko) Chrome/119.0.0.0 Safari/537.36" etag="7f7-uWdnYEk4SlrGTJcW" version="22.1.3" type="github">
  <diagram name="第 1 页" id="OOyVnFa1fmAQnNDQ0bq-">
    <mxGraphModel dx="2074" dy="1141" grid="0" gridSize="10" guides="0" tooltips="1" connect="1" arrows="1" fold="1" page="0" pageScale="1" pageWidth="827" pageHeight="1169" math="0" shadow="0">
      <root>
        <mxCell id="0" />
        <mxCell id="1" parent="0" />
      </root>
    </mxGraphModel>
  </diagram>
</mxfile>
